<svg width="53" height="120" viewBox="0 0 53 120" fill="none" xmlns="http://www.w3.org/2000/svg">
<path d="M13.9282 120C13.9282 120 13.9282 118.111 14.1978 117.485C14.4673 116.857 15.454 114.302 15.454 114.302H19.3095C19.3095 114.302 20.0267 116.634 20.0712 117.396C20.1157 118.158 20.0712 120.002 20.0712 120.002H13.9282V120Z" fill="#0D1531"/>
<path d="M38.4134 120C38.4134 120 38.4134 118.111 38.1438 117.485C37.8743 116.857 36.8876 114.302 36.8876 114.302H33.0321C33.0321 114.302 32.3149 116.634 32.2704 117.396C32.2259 118.158 32.2704 120.002 32.2704 120.002H38.4134V120Z" fill="#0D1531"/>
<path d="M22.9634 14.0344C22.9634 14.0344 22.8274 18.2391 22.2884 20.1211L18.0298 23.093L34.061 25.493L30.2384 20.2102C30.2384 20.2102 29.0852 14.5734 29.6899 12.4875C30.2946 10.4039 22.9634 14.0344 22.9634 14.0344Z" fill="#FFAE73"/>
<path d="M22.9399 14.6156C22.9399 14.6133 24.2079 17.6672 26.5962 17.5992C28.9845 17.5313 29.5282 14.8313 29.5282 14.8313L22.9399 14.6156Z" fill="#F99352"/>
<path d="M21.5148 12.1453C21.5148 12.1453 20.7437 8.29688 20.2047 7.12969C19.6656 5.96484 19.218 0.761719 25.1828 0.492187C25.1828 0.492187 27.4703 0.761719 28.7242 0C28.7242 0 28.7242 0.761719 28.4102 1.03125C28.4102 1.03125 30.4727 0.539062 32.0875 2.33203C33.7023 4.125 31.0117 10.4039 31.1453 11.8828L21.5148 12.1453Z" fill="#0D1531"/>
<path d="M26.3219 16.4203C24.5923 16.3898 21.4071 14.0859 21.4071 11.2336V6.78282C21.4071 5.74219 22.1337 4.88907 23.0219 4.88907H29.6219C30.5102 4.88907 31.2368 5.74219 31.2368 6.78282V10.9828C31.2368 13.9734 28.3048 16.4555 26.3219 16.4203Z" fill="#FFAE73"/>
<path d="M21.4071 9.15938C21.4071 9.15938 21.4165 6.48516 23.5352 6.07266C25.654 5.6625 30.3954 7.37579 31.068 5.42579C31.7407 3.47579 21.9016 3.5086 21.4071 4.75313C20.9102 5.99766 21.4071 9.15938 21.4071 9.15938Z" fill="#0D1531"/>
<path d="M14.411 54.6187C14.411 54.6187 15.086 75.2227 14.0759 86.9766C13.068 98.7328 14.0829 115.092 14.0829 115.092C14.0829 115.092 17.3102 116.871 20.8071 115.092C20.8071 115.092 24.6438 92.3812 24.618 86.9766C24.5923 81.2203 28.7923 55.5164 28.7923 55.5164L14.411 54.6187Z" fill="#172856"/>
<path d="M38.2727 115.092C38.2727 115.092 35.0477 116.871 31.5485 115.092C31.5485 115.092 27.7141 92.3812 27.7376 86.9766C27.7493 84.5461 27.0063 78.5555 26.1438 72.4476C24.9649 64.0922 23.5634 55.5164 23.5634 55.5164L38.5048 54.5836C38.5048 54.5836 37.2719 75.2227 38.2821 86.9766C39.2899 98.7328 38.2727 115.092 38.2727 115.092Z" fill="#172856"/>
<path d="M38.3242 58.0453C38.3242 58.0453 31.9539 59.2781 26.1438 59.2781C23.6102 59.2781 20.8563 58.9992 18.6625 58.7062C16.2391 58.3852 14.5 58.0453 14.5 58.0453C14.5 58.0453 13.2086 58.1578 13.9703 51.7922C14.5492 46.9476 14.3688 42.5719 14.2399 38.0719C14.2258 37.5727 14.2352 36.9797 14.268 36.3211C14.5164 31.0734 16.1031 21.6258 17.3125 21.1195C17.3125 21.1195 19.1102 20.4516 22.2883 20.1258C22.2883 20.1867 24.1328 22.8844 26.3219 23.1867C27.6813 22.6477 28.75 22.1906 30.2383 20.2148C32.1227 20.4352 34.1781 20.8078 36.3766 21.3984C36.3766 21.3984 36.6063 22.3992 37.4688 39.7641C37.8109 46.6383 40.1594 58.0687 38.3242 58.0453Z" fill="#0D1531"/>
<path d="M27.7375 86.9766C27.7493 84.5461 27.0063 78.5555 26.1438 72.4477C27.0391 68.7984 29.2188 65.2875 29.2188 65.2875C31.9751 73.0242 27.7375 86.9766 27.7375 86.9766Z" fill="#0D1531"/>
<path d="M8.35474 41.7867C8.20239 41.9133 8.73208 43.2258 9.51255 44.9367C11.118 48.4523 13.7875 53.6437 13.7875 53.6437C13.4008 55.1086 12.9766 56.0133 12.9766 56.0133C8.48833 52.4883 5.59614 49.4883 3.74927 47.1867C1.15239 43.9523 0.620361 42.0961 0.620361 42.0961C10.6118 21.757 17.6454 21.007 17.6454 21.007L16.8157 34.4484C16.8133 34.4484 8.81645 41.4023 8.35474 41.7867Z" fill="#0D1531"/>
<path d="M13.2555 53.8992C13.2555 53.8992 15.6766 51.6562 16.6633 52.9125C17.6501 54.1687 17.8282 56.1422 17.0665 56.0062C16.3048 55.8727 14.7344 55.1555 14.5094 55.5141C14.2844 55.8727 13.2813 56.5594 12.9766 56.0133C12.6719 55.4695 13.2555 53.8992 13.2555 53.8992Z" fill="#FFAE73"/>
<path d="M13.7875 53.6438C13.4008 55.1086 12.9766 56.0133 12.9766 56.0133C8.48833 52.4883 5.59614 49.4883 3.74927 47.1867C5.14146 47.0836 7.17349 46.5844 9.51255 44.9367C11.1204 48.4523 13.7875 53.6438 13.7875 53.6438Z" fill="#FFAE73"/>
<path d="M52.3797 42.0961C52.3797 42.0961 51.8477 43.9523 49.2508 47.1867C47.4039 49.4883 44.5094 52.4859 40.0235 56.0133C40.0235 56.0133 39.5992 55.1086 39.2125 53.6438C39.2125 53.6438 41.8797 48.4523 43.4852 44.9367C44.2656 43.2258 44.7953 41.9133 44.643 41.7867C44.2844 41.4891 39.4 37.2445 37.2203 35.3508C36.5875 34.8 36.1844 34.4508 36.1844 34.4508L35.6852 21.2086C35.6875 21.2063 42.3883 21.757 52.3797 42.0961Z" fill="#0D1531"/>
<path d="M39.7446 53.8992C39.7446 53.8992 37.3235 51.6562 36.3368 52.9125C35.3501 54.1687 35.172 56.1422 35.9337 56.0062C36.6954 55.8727 38.2657 55.1555 38.4907 55.5141C38.7157 55.8727 39.7188 56.5594 40.0235 56.0133C40.3282 55.4695 39.7446 53.8992 39.7446 53.8992Z" fill="#FFAE73"/>
<path d="M39.2125 53.6438C39.5992 55.1086 40.0235 56.0133 40.0235 56.0133C44.5117 52.4883 47.4039 49.4883 49.2508 47.1867C47.8586 47.0836 45.8266 46.5844 43.4875 44.9367C41.8797 48.4523 39.2125 53.6438 39.2125 53.6438Z" fill="#FFAE73"/>
<path d="M22.511 19.0969C22.511 19.0969 21.7985 19.3945 21.5969 20.2008C21.5969 20.2008 24.4516 23.1375 26.3196 23.182L22.511 19.0969Z" fill="#FFAC00"/>
<path d="M26.3219 23.182L30.0063 18.9492C30.0063 18.9492 30.768 19.4508 30.7563 20.2734C30.7563 20.2734 27.9063 23.2945 26.3219 23.182Z" fill="#FFAC00"/>
<path d="M25.6563 22.8703C25.6563 22.8703 22.8438 47.1516 23.8235 50.1117C24.3274 51.6352 25.0024 52.9523 25.5392 53.8734C25.9259 54.5344 26.8821 54.5344 27.2642 53.8687C28.0118 52.5727 28.9868 50.6953 28.9868 49.7437C28.9868 48.2016 26.8517 22.8492 26.8517 22.8492L25.6563 22.8703Z" fill="#FDCB08"/>
<path d="M24.9204 21.682C24.9204 21.682 26.6196 21.5109 27.6555 21.6164C27.8618 21.6375 27.9743 21.8625 27.8759 22.043C27.5852 22.5656 26.9946 23.4703 26.3759 23.4703C25.5063 23.468 24.1493 21.7406 24.9204 21.682Z" fill="#FFAC00"/>
<path d="M24.9438 13.5539C24.9438 13.5539 25.4829 14.2828 26.4228 14.257C27.3649 14.2312 27.8056 13.5539 27.8056 13.5539C27.8056 13.5539 26.2188 13.2937 24.9438 13.5539Z" fill="white"/>
</svg>
