<svg width="57" height="120" viewBox="0 0 57 120" fill="none" xmlns="http://www.w3.org/2000/svg">
<path d="M29.0344 116.276C29.0555 117.373 28.9454 118.228 28.9852 119.29C28.9969 119.641 28.9618 119.972 29.2711 119.974C31.4743 119.981 31.3454 120.016 33.5016 119.963C34.125 119.948 33.9258 118.985 33.8907 118.362C33.8508 117.645 33.8438 117.159 33.6727 116.013C33.4524 114.52 30.3047 116.831 29.0344 116.276Z" fill="#172856"/>
<path d="M13.4765 116.126C13.4554 117.22 13.5609 118.399 13.5211 119.461C13.5093 119.813 13.5257 119.972 13.2164 119.972C11.0156 119.979 11.107 120.038 8.95074 119.988C8.3273 119.974 8.47965 119.168 8.54762 118.547C8.69996 117.148 8.62965 117.38 9.01871 116.489C9.6234 115.109 12.2062 116.681 13.4765 116.126Z" fill="#172856"/>
<path d="M52.2305 28.2516C51.9446 29.0063 51.5625 28.4133 51.4969 29.5711C51.429 30.7289 50.7258 33.1313 50.9461 34.6899C51.1664 36.2484 53.4563 36.9914 54.6422 37.3711C55.0032 36.4688 55.2774 35.6039 55.636 34.6547C55.2821 33.3211 55.5961 30.7711 54.961 29.7399C54.3282 28.7109 52.9922 29.1024 52.2305 28.2516Z" fill="#F3AA78"/>
<path d="M36.0539 56.3274C32.8851 60.8883 29.0578 64.8399 25.3851 68.8453C26.4633 84.811 27.6984 101.009 28.8117 117.042C30.5601 117.366 32.2476 117.354 33.8742 116.534C34.9148 96.6141 36.3023 76.268 36.0539 56.3274Z" fill="#0D1531"/>
<path d="M34.7086 58.2328C34.9102 57.5602 35.9321 59.5734 35.9297 59.0742C35.8665 48.675 22.1602 54.6703 18.5602 56.9695C14.9602 59.2688 16.6336 59.3977 13.8915 61.3477C12.1852 79.8375 10.2118 98.4352 8.42114 116.955C10.1227 117.741 11.9016 117.855 13.6922 117.396C17.5852 101.398 21.4711 85.3992 25.35 69.3984C28.8938 67.8797 32.7235 61.6055 34.7086 58.2328Z" fill="#0D1531"/>
<path d="M20.6484 18.7852C20.6414 20.6297 20.6343 22.4766 20.6296 24.3211C22.1835 24.0445 23.7351 23.768 25.289 23.4914C25.0312 21.4148 24.771 19.3406 24.5109 17.2641C23.2218 17.7727 21.9351 18.2789 20.6484 18.7852Z" fill="#F3AA78"/>
<path opacity="0.6" d="M24.8672 20.1328C24.7476 19.1766 24.6281 18.2227 24.5086 17.2664C23.2195 17.9484 21.9304 18.6281 20.6414 19.3102C20.6414 19.6734 20.639 20.0391 20.639 20.4024C22.1039 20.7563 23.4515 20.7024 24.8672 20.1328Z" fill="#8FB6E5"/>
<path d="M27.3305 7.48595C27.4242 8.75157 27.518 10.0195 27.6117 11.2852C27.4383 11.4117 27.2649 11.5359 27.0914 11.6625C26.7703 10.1203 26.4516 8.57814 26.1305 7.03595C26.5313 7.18595 26.9321 7.33595 27.3305 7.48595Z" fill="#666666"/>
<path d="M26.6461 10.8961C26.5243 11.632 26.7563 12.5063 27.4571 12.6609C28.1579 12.8156 28.6524 12.1031 28.7766 11.3672C28.8985 10.6313 28.6665 9.75703 27.9657 9.60234C27.2649 9.44766 26.7704 10.1602 26.6461 10.8961Z" fill="#DE8E56"/>
<path d="M27.2391 15.5953C27.3492 15.2109 27.436 14.8055 27.4828 14.4094C27.6117 13.3383 27.6117 12.2836 27.5297 11.2195C27.511 10.9899 27.5157 10.8117 27.4992 10.5914C27.4336 9.70079 27.3469 8.87111 27 8.03673C25.8867 5.35079 23.5242 3.67501 20.9391 4.06408C17.4563 4.58673 15.3633 8.1797 15.8649 12.0727C15.4735 12.0188 15.0821 11.9133 14.7352 12.2625C14.0696 12.9328 14.1164 13.9664 14.6227 14.782C15.1266 15.5977 15.9352 15.975 16.7274 15.4945C16.8375 15.4289 16.8774 15.3328 16.9617 15.2508C17.9227 18.375 20.4328 20.332 23.3086 19.6992C24.7149 19.3899 25.6383 18.4453 26.5313 17.2266C26.5875 17.1492 26.6367 17.0625 26.6883 16.9664C26.918 16.5399 27.1032 16.0758 27.2391 15.5953Z" fill="#F3AA78"/>
<path d="M28.2469 22.2211C27.0633 22.1367 26.1844 22.207 25.1203 22.1813C23.4821 23.5945 22.2164 23.8828 20.6227 22.1813C20.0555 22.2281 19.05 22.0969 18.757 22.2539C16.6828 28.275 15.0844 55.0336 20.461 56.4797C25.8375 57.9258 28.6664 57.2508 33.0703 55.4953C32.3438 50.0156 33.5039 45.4453 32.6649 39.8836C31.8281 34.3195 29.3766 27.9281 28.2469 22.2211Z" fill="#EBF4FF"/>
<path d="M28.1696 22.1297C30.4383 23.0109 33.075 25.4086 34.5867 28.1367C36.0985 30.8625 41.6719 45.8344 44.8969 42.1664C48.1196 38.5008 48.5344 38.2383 50.9344 34.6289C52.1391 35.5031 53.6016 36.0891 54.6422 37.4086C52.8914 41.1211 47.2594 52.9969 43.8657 53.8313C40.4719 54.6656 35.2922 49.0055 32.8828 46.6828C31.3313 38.4281 29.7446 30.4266 28.1696 22.1297Z" fill="#172856"/>
<path d="M18.6515 21.9961C15.7101 24.5789 11.6765 20.6156 8.88042 26.1844C6.08433 31.7531 2.19136 58.2094 6.59995 65.0648C8.09761 66.3703 10.0476 65.7773 11.7562 65.5312C11.7656 66.5156 11.7562 67.5516 11.7609 68.5477C15.3375 69.5766 19.432 69.8766 22.9476 68.5758C23.1492 55.4977 23.4445 33.7617 18.6515 21.9961Z" fill="#203970"/>
<path d="M28.1742 22.1813C29.6906 35.2055 33.0773 54.5555 31.2867 67.2024C33.3961 67.3641 35.5851 67.2797 37.6078 66.5297C37.6406 57.3445 36.9047 25.1039 28.1742 22.1813Z" fill="#203970"/>
<path d="M18.5812 22.1813C17.6039 23.9367 16.6265 25.6945 15.6469 27.45C18.0844 41.1492 20.5219 54.8508 22.957 68.55C23.0906 55.6524 23.5429 33.4992 18.5812 22.1813Z" fill="#172856"/>
<path d="M31.6687 26.6813C30.5039 25.1813 29.3367 23.6813 28.1719 22.1813C29.6883 35.2055 33.075 54.5555 31.2844 67.2024C34.5773 57.1547 32.5406 37.657 31.6687 26.6813Z" fill="#172856"/>
<path d="M20.4023 61.9477C20.3273 61.6524 20.2547 61.1953 20.1773 60.9258C20.039 60.4359 19.6804 60.15 19.2633 60.293C18.8484 60.4359 18.6 60.7805 18.7172 61.357C18.989 62.7094 19.3453 64.3711 19.6523 65.7117C19.7836 66.2859 20.1422 66.457 20.5664 66.3563C20.9906 66.2578 21.1945 65.8125 21.1172 65.3039C21.075 65.0227 20.9554 64.5797 20.9015 64.2774C21.1218 64.1531 21.2672 63.9891 21.2062 63.6656C21.1265 63.2531 21.014 62.7281 20.9179 62.3203C20.8429 62.0039 20.6484 61.9383 20.4023 61.9477Z" fill="#C9DDFF"/>
<path d="M20.107 70.8914C14.8992 72.4195 9.39845 73.9992 4.17423 75.4523C3.30236 75.6961 2.87579 75.3469 2.65079 74.3719C1.80704 70.7086 0.916416 66.5648 0.180479 62.8711C-0.0163963 61.8867 0.220324 61.3477 1.08985 61.0922C6.30001 59.5641 11.7938 57.9797 17.025 56.5336C17.8992 56.2922 18.3188 56.6344 18.5438 57.6094C19.3899 61.2727 20.2781 65.4164 21.0141 69.1102C21.2109 70.0969 20.9766 70.6359 20.107 70.8914Z" fill="#31579B"/>
<path d="M11.7211 65.5524C11.3273 65.6016 10.9266 65.8031 10.5656 65.857C10.2047 65.9109 9.96094 65.9391 9.6 65.9274C9.23906 65.9156 8.98828 65.9203 8.55938 65.8805C8.13281 65.8406 7.44141 65.5852 6.98438 65.5899C7.20703 66.7594 7.74141 70.1977 8.20547 70.7695C8.66953 71.3438 8.325 68.9414 8.70234 69.1664C9.07734 69.3914 9.23203 71.6789 9.54844 71.5383C9.86484 71.3977 9.31406 69.1617 9.62578 69.1055C9.9375 69.0469 10.0289 71.5477 10.5188 71.3391C11.0063 71.1305 10.043 68.843 10.4953 68.7281C10.9477 68.6133 11.0438 71.5594 11.5383 71.2031C11.9531 70.9031 11.1492 67.718 11.0297 66.9609C11.0133 66.8625 11.2008 66.7524 11.2148 66.7547C11.4117 66.7781 13.1109 67.8563 13.0875 67.1742C13.0758 66.8789 12.0047 65.8172 11.7211 65.5524Z" fill="#F3AA78"/>
<path d="M4.82581 58.6922C5.06956 60.5414 5.43518 63.9891 6.48518 65.3742C8.25706 65.9977 10.0453 65.9859 11.8477 65.6086C11.8524 64.3055 11.8406 64.0875 11.85 62.5289C11.8594 60.9727 11.8922 58.1555 11.9063 56.3555C10.6008 56.3016 9.29534 56.3461 7.98987 56.3297C6.93518 57.1195 5.88049 57.9047 4.82581 58.6922Z" fill="#203970"/>
<path d="M14.0719 39.0703C14.018 39.307 13.9289 39.7242 13.875 39.975C13.8024 40.3125 13.7532 40.5797 13.6875 40.9172C13.6617 41.0438 13.6242 41.2383 13.5985 41.3766C13.5727 41.5149 13.5375 41.7141 13.5141 41.8359C13.4555 42.1641 13.3992 42.4617 13.3477 42.7758C13.1438 44.025 12.9516 45.2766 12.7899 46.5328C12.6281 47.7867 12.4852 49.0547 12.3633 50.3133C12.1196 52.8305 11.9414 55.3758 11.8266 57.9024C11.7117 60.4289 11.6602 62.9297 11.6719 65.4563C11.3063 65.618 10.9547 65.7305 10.561 65.7914C10.1649 65.8524 9.75237 65.8734 9.34456 65.8617C8.93909 65.8524 8.52893 65.8125 8.12346 65.7539C7.71799 65.6977 7.31252 65.6156 6.91174 65.5195C7.31018 65.6344 7.70862 65.7422 8.11643 65.8149C8.52424 65.8875 8.92971 65.9461 9.34221 65.9719C9.75705 65.9977 10.1649 65.9953 10.5821 65.9484C10.9992 65.9016 11.4024 65.7844 11.7961 65.6109C11.8078 65.6063 11.8313 65.5922 11.8453 65.5875C11.8453 65.5688 11.8453 65.5383 11.8453 65.5219C11.8852 62.9859 11.9719 60.4547 12.1078 57.9258C12.2414 55.3969 12.4219 52.8703 12.6539 50.3508C12.7711 49.0899 12.9047 47.8336 13.0524 46.5797C13.2024 45.3234 13.3688 44.0742 13.5586 42.825C13.7485 41.5758 13.9594 40.3359 14.1961 39.0961C14.4328 37.8586 14.7164 36.6352 15.0094 35.4117C14.6602 36.6258 14.3578 37.807 14.0719 39.0703Z" fill="#31579B"/>
<path d="M26.9882 3.69141C24.6398 -0.28593 31.6406 6.5461 25.5961 1.55157C19.5515 -3.44296 12.8039 4.5586 14.6578 11.2313C12.9703 5.14219 16.4039 18.518 14.6578 11.2313C16.3453 17.3203 14.1047 9.82735 14.6812 11.7047C15.2578 13.5797 14.7656 11.9906 14.7679 11.993C14.9179 12.3281 14.8195 12.143 14.8757 12.1242C15.2367 12.007 15.4734 11.9016 15.8953 12.1008C16.1179 12.2063 16.4132 12.607 16.5492 12.9469C16.0312 17.6625 19.5515 22.5305 23.7398 21.75C27.9281 20.9695 28.3406 16.2867 27.6281 12.3609C27.5929 13.7813 27.2414 15.1313 26.6203 16.3828C26.3953 15.8742 26.3156 15.5109 25.889 15.1078C25.132 14.393 24.1664 14.2078 23.1632 14.3555C22.2234 14.4938 21.3351 14.9461 20.7914 15.8203C20.3929 16.4602 20.3695 16.9899 20.2781 17.7024C16.6078 15.6 18.2601 11.1609 17.9812 7.44844C17.9812 7.4461 17.9836 7.44376 17.9859 7.43907C18.7781 7.72969 22.6898 9.41485 22.4859 7.79532C23.8406 8.16798 28.3757 9.43829 27.3351 6.29298C29.5359 5.9672 27.089 3.77813 26.9882 3.69141ZM21.2273 16.1578C21.6703 15.4359 22.4507 15.0703 23.2218 14.9578C24.0539 14.8359 24.9117 14.9649 25.5211 15.5531C25.9828 16.0008 26.0226 16.3945 26.2125 16.9664C25.2797 17.9391 24.3117 18.3 23.0578 18.2953C22.2984 18.293 21.5461 18.1336 20.8007 17.9203C20.8617 17.2523 20.8593 16.7578 21.2273 16.1578Z" fill="#666666"/>
<path d="M54.8156 35.1539C53.7562 34.9289 52.5304 34.6359 51.4804 34.3594C51.2062 34.2867 51.1008 34.1297 51.1593 33.7992C51.6187 31.1461 52.1179 28.3617 52.6054 25.7133C52.6664 25.3828 52.8164 25.2891 53.0929 25.3477C54.1523 25.5727 55.3781 25.8656 56.4281 26.1422C56.7023 26.2148 56.8078 26.3695 56.7492 26.7023C56.2898 29.3555 55.7929 32.1422 55.3031 34.7883C55.2422 35.1188 55.0922 35.2125 54.8156 35.1539Z" fill="#423E3F"/>
<path opacity="0.1" d="M54.7312 34.3008C53.8242 34.1109 52.7531 33.8555 51.8531 33.6141C51.5812 33.5414 51.4757 33.3844 51.532 33.0539C51.9257 30.757 52.364 28.3172 52.7882 26.0273C52.8492 25.6969 52.9992 25.6031 53.2757 25.6594C54.1828 25.8492 55.2539 26.1047 56.1539 26.3461C56.4257 26.4188 56.5312 26.5758 56.475 26.9063C56.0812 29.2031 55.6429 31.643 55.2187 33.9328C55.1554 34.2633 55.0054 34.357 54.7312 34.3008Z" fill="#ADCCFF"/>
<path d="M56.6508 29.1609C56.3391 28.7133 55.3266 27.8648 54.9891 28.0852C54.5461 28.3758 56.1375 29.4516 55.9711 29.6836C55.8047 29.9156 54.3821 28.9875 54.2602 29.4422C54.1383 29.8969 55.7086 30.3258 55.6336 30.6656C55.561 31.0055 54.1969 30.3656 54.0727 30.75C53.9485 31.1344 55.4719 31.4859 55.4836 31.6055C55.5797 32.5898 54.0118 31.875 53.8922 32.3602C53.8055 32.707 55.3922 32.8875 55.6266 32.9273C55.5727 33.4453 55.4508 33.9422 55.3711 34.4555C55.4602 34.507 55.5305 34.6453 55.6313 34.643C55.9243 33.4734 56.6039 30.6773 56.8078 29.8664C57.0094 29.0555 56.7492 29.3062 56.6508 29.1609Z" fill="#F3AA78"/>
</svg>
