<svg width="49" height="120" viewBox="0 0 49 120" fill="none" xmlns="http://www.w3.org/2000/svg">
<path d="M13.7093 7.9289C13.7093 7.9289 14.8461 6.90234 15.125 6.18281C15.4015 5.46328 15.3711 4.25625 15.3711 3.47109C15.3711 3.47109 15.0289 3.35156 14.9445 3.72422C14.8601 4.09687 14.7078 4.96172 14.3914 5.1375C14.075 5.31093 13.3672 5.29218 13.2054 6.18281C13.039 7.07578 13.7093 7.9289 13.7093 7.9289Z" fill="#FFB27D"/>
<path d="M11.1054 8.10234C11.1054 8.10234 10.0718 5.98359 10.2804 5.29453C10.489 4.60546 13.6695 3.84843 14.0867 4.17421C14.5062 4.5 14.0867 8.45625 14.0867 8.45625L11.1054 8.10234Z" fill="#FFB27D"/>
<path d="M44.5578 71.9109C44.5578 71.9109 44.4054 73.6594 45.0148 74.4961C45.6242 75.3328 45.9523 76.0922 46.1562 75.7125C46.3578 75.3328 45.8257 74.0156 46.0039 74.0391C46.182 74.0648 46.6742 75.6094 46.9226 76.0922C47.171 76.5727 47.7031 77.3344 48.057 76.9547C48.4109 76.575 47.7265 72.975 47.45 72.5203C47.171 72.0633 46.5874 71.0508 46.5874 71.0508L44.5578 71.9109Z" fill="#FFB27D"/>
<path d="M22.7 19.2023L34.7984 12.3961L42.9289 22.4695L31.8499 27.8461L22.7 19.2023Z" fill="#0D1531"/>
<path d="M27.7812 22.4109C27.7812 22.4109 27.5281 23.4984 26.8179 23.8828C26.1078 24.2672 27.2234 25.3125 26.9445 26.0836C26.6656 26.8547 27.7906 27.8437 27.7906 27.8437L35.6047 28.7437C35.6047 28.7437 36.7507 28.2469 36.8515 26.9039C36.9523 25.5609 37.0718 23.8828 37.0718 23.8828L33.657 21.2789L28.7398 21.5109L27.7812 22.4109Z" fill="#C94C43"/>
<path d="M1.52185 9.38203C1.52185 9.38203 1.16091 8.53359 0.907786 7.61016C0.795286 7.18359 0.701537 6.74531 0.678099 6.36328C0.666381 6.14766 0.67341 5.95078 0.713254 5.78672C0.713254 5.78672 10.7867 3.70547 11.7758 3.30469C12.7672 2.90391 21.432 0 21.432 0C21.432 0 21.7297 0.602344 22.0039 1.425C22.1047 1.73203 22.2054 2.06953 22.2828 2.41875C22.4281 3.06328 22.5031 3.74531 22.4047 4.33594C22.4047 4.33594 12.1976 5.54766 11.1406 6.05625C10.0836 6.56016 1.52185 9.38203 1.52185 9.38203Z" fill="#EFCBAB"/>
<path d="M0.910108 7.61016C0.797608 7.18359 0.703856 6.74531 0.680418 6.36328C0.668699 6.14766 0.675733 5.95078 0.715576 5.78672C0.715576 5.78672 10.789 3.70547 11.7781 3.30469C12.7671 2.90391 21.432 0 21.432 0C21.432 0 21.7296 0.602344 22.0039 1.425C22.1046 1.73203 22.2054 2.06953 22.2828 2.41875C19.4093 2.77031 11.6117 3.76406 10.6437 4.22813C9.70151 4.67813 3.47886 6.75703 0.910108 7.61016Z" fill="#DDB08E"/>
<path d="M13.489 2.69296C13.489 2.69296 10.8007 2.95312 9.82574 3.81562L10.3953 6.35156C10.3953 6.35156 12.8656 6.10078 14.1078 5.44687L13.489 2.69296Z" fill="#C94C43"/>
<path d="M15.9312 120C15.9312 120 15.9312 118.383 16.1609 117.844C16.3906 117.305 17.2367 115.116 17.2367 115.116H20.5414C20.5414 115.116 21.1554 117.115 21.1953 117.766C21.2328 118.42 21.1953 120 21.1953 120H15.9312Z" fill="#233862"/>
<path d="M36.9124 120C36.9124 120 36.9124 118.383 36.6828 117.844C36.4531 117.305 35.607 115.116 35.607 115.116H32.3023C32.3023 115.116 31.6882 117.115 31.6484 117.766C31.6109 118.42 31.6484 120 31.6484 120H36.9124Z" fill="#233862"/>
<path d="M28.6461 28.9313C28.6461 28.9313 27.9828 32.475 27.282 33.9984L23.2883 35.9602L28.8781 47.0109L36.5539 40.0828L34.0039 35.1117C34.0039 35.1117 33.7601 30.1875 34.5453 28.5C35.3305 26.8102 28.6461 28.9313 28.6461 28.9313Z" fill="#FFB27D"/>
<path d="M28.5523 29.4187C28.5523 29.4187 29.2273 32.168 31.2593 32.4234C33.2914 32.6766 34.1023 30.4617 34.1023 30.4617L28.5523 29.4187Z" fill="#99592E"/>
<path d="M31.1797 31.3898C29.7172 31.1391 27.3219 28.7719 27.6922 26.3555L28.2734 22.5844C28.4094 21.7031 29.1359 21.075 29.8883 21.1898L35.4781 22.05C36.2305 22.1648 36.7344 22.9828 36.5984 23.8641L36.0523 27.4219C35.6633 29.9555 32.8555 31.6758 31.1797 31.3898Z" fill="#FFB27D"/>
<path d="M16.3461 63.9727C16.3344 63.532 16.9203 81.4992 16.0601 91.7016C15.2094 101.777 16.0672 115.795 16.0672 115.795C16.0672 115.795 18.8328 117.319 21.8305 115.795C21.8305 115.795 25.1164 96.3352 25.0976 91.7016C25.0766 86.768 28.6742 64.7438 28.6742 64.7438L16.3461 63.9727Z" fill="#0D1531"/>
<path d="M36.7929 115.795C36.7929 115.795 34.0296 117.321 31.032 115.795C31.032 115.795 27.746 96.3351 27.7671 91.7039C27.7765 89.6203 27.139 84.4875 26.4007 79.2539C25.3906 72.0937 24.1882 64.7461 24.1882 64.7461L36.9921 63.9469C36.9921 63.9469 35.9375 81.6328 36.8 91.7062C37.6648 101.775 36.7929 115.795 36.7929 115.795Z" fill="#0D1531"/>
<path d="M29.982 26.6109C29.4359 26.5266 28.3625 26.2383 28.318 25.2609C28.3039 24.9656 28.3977 24.7172 28.5875 24.5461C28.7984 24.3586 29.1078 24.2789 29.4383 24.3305L31.1164 24.5883C31.4352 24.6375 31.6437 24.7641 31.7375 24.9633C31.8922 25.2984 31.6672 25.732 31.5641 25.9031C31.2078 26.4867 30.8023 26.7234 30.2914 26.6461C30.268 26.6414 30.1508 26.6367 29.982 26.6109ZM29.4219 24.4383C29.1242 24.3914 28.8477 24.4617 28.6625 24.6281C28.4984 24.7758 28.4164 24.9914 28.4281 25.2539C28.4516 25.7555 28.768 26.1234 29.3727 26.3461C29.832 26.5148 30.2914 26.5336 30.2961 26.5336H30.3031C30.7648 26.6039 31.1352 26.3859 31.4656 25.8445C31.5406 25.7227 31.7703 25.3055 31.6344 25.0102C31.5594 24.8461 31.3789 24.743 31.0977 24.6984L29.4219 24.4383Z" fill="#2C3A64"/>
<path d="M33.8516 27.2062C33.6828 27.1805 33.568 27.15 33.5469 27.1453C33.0359 27.0656 32.7219 26.7187 32.5555 26.0555C32.5063 25.8609 32.4219 25.3805 32.6727 25.1062C32.8203 24.9445 33.057 24.8859 33.3781 24.9352L35.0563 25.193C35.3867 25.2445 35.6586 25.4133 35.8039 25.6547C35.9352 25.875 35.9492 26.1398 35.8461 26.4164C35.5086 27.3375 34.3977 27.2906 33.8516 27.2062ZM33.3594 25.0453C33.0805 25.0031 32.8766 25.0477 32.7547 25.1812C32.5344 25.4203 32.6305 25.8891 32.6633 26.0273C32.8156 26.6437 33.1039 26.9648 33.5656 27.0352L33.5727 27.0375C33.5773 27.0398 34.0203 27.1617 34.5102 27.1383C35.1523 27.1078 35.5672 26.8523 35.7383 26.3812C35.8274 26.1352 35.8156 25.9055 35.7031 25.7133C35.5766 25.5 35.3328 25.35 35.0352 25.3055L33.3594 25.0453Z" fill="#2C3A64"/>
<path d="M31.5266 25.4437C31.5008 25.4391 31.4797 25.4227 31.4727 25.3969C31.4633 25.3617 31.4844 25.3242 31.5196 25.3148C31.55 25.3055 32.2532 25.1133 32.7875 25.5117C32.818 25.5328 32.8227 25.575 32.8016 25.6055C32.7805 25.6359 32.7383 25.6406 32.7078 25.6195C32.225 25.2586 31.5617 25.4414 31.5547 25.4437C31.5453 25.4461 31.536 25.4461 31.5266 25.4437Z" fill="#2C3A64"/>
<path d="M30.0476 35.9531L26.2648 34.3148C26.2648 34.3148 24.3101 49.8656 26.9187 50.8289C26.9187 50.8289 34.3672 37.6008 33.8609 35.9016L30.0476 35.9531Z" fill="white"/>
<path d="M27.6547 33.3281C27.6547 33.3281 26.5883 33.5109 26.0305 34.043C26.0305 34.043 26.8414 36.6797 28.9953 37.4648L29.9187 35.9531C29.9211 35.9531 28.1633 35.1211 27.6547 33.3281Z" fill="#D2E3FC"/>
<path d="M29.9211 35.9531C29.9211 35.9531 33.4437 35.8172 33.9687 34.1203C33.9687 34.1203 34.6719 34.8563 34.6461 36.0469C34.6461 36.0469 33.5305 37.7297 30.7437 37.7508L29.9211 35.9531Z" fill="#D2E3FC"/>
<path d="M30.2141 28.7461C30.2141 28.7461 32.0891 28.8281 32.9164 29.1609C32.9164 29.1609 32.3445 29.8383 31.5969 29.7234C30.8492 29.6086 30.3242 29.2477 30.2141 28.7461Z" fill="#FFF0E6"/>
<path d="M16.9414 23.2219C15.2398 24.293 12.9195 25.7461 11.0234 26.8922C10.9297 26.5711 10.8617 26.2805 10.8218 26.0273C10.1937 22.0195 11.1078 8.1 11.1078 8.1C11.1078 8.1 11.7406 7.78125 12.3922 7.72734C13.625 7.62656 14.089 8.4539 14.089 8.4539C14.089 8.4539 16.2359 20.7 16.9414 23.2219Z" fill="#FFB27D"/>
<path d="M47.0515 71.6297L45.7695 72.1617C43.7187 72.8906 41.5062 71.9062 40.8359 69.8367C39.9335 67.0453 39.8398 64.0383 39.5046 61.5633C39.3406 60.3469 39.1507 57.8367 38.4124 55.882C38.4101 55.882 38.4101 55.8797 38.4101 55.8797L39.6992 99.143C20.3914 100.512 10.9695 89.4117 10.9695 89.4117C10.4703 77.7 15.1507 51.3094 16.857 42.1617C16.0343 40.3031 10.1937 34.9711 9.21635 29.7328C8.76401 27.3023 10.1843 25.582 11.9093 24.4195C14.0796 22.957 16.7328 22.3781 16.7328 22.3781L22.9742 30.7219C23.239 31.0219 23.4265 31.2586 23.4992 31.4063C23.982 32.3859 26.4804 34.0125 26.4804 34.0125C26.4734 34.0641 26.7499 48.0773 27.2585 48.525C27.9921 48.2461 32.9187 38.3883 34.0062 35.1023C35.5742 35.5336 37.2664 36.1195 39.0499 36.9047C39.0499 36.9047 42.4296 38.7094 42.9078 46.5703C43.3132 53.2383 47.3867 61.7461 48.3125 69.4781C48.4203 70.4016 47.9046 71.2781 47.0515 71.6297Z" fill="#172856"/>
<path d="M25.7797 33.5344C25.7797 33.5344 26.2344 47.1211 26.8179 50.5219L35.4828 35.55L34.2875 35.107L27.439 47.5148L26.764 34.0172L25.7797 33.5344Z" fill="#C94C43"/>
<path d="M27.6547 33.007C27.6547 33.007 26.5883 33.1898 26.0305 33.7219C26.0305 33.7219 26.8414 36.3563 28.9953 37.1438L29.9187 35.9531C29.9211 35.9531 28.1633 34.8 27.6547 33.007Z" fill="white"/>
<path d="M29.9211 35.9531C29.9211 35.9531 33.4437 35.4961 33.9687 33.7992C33.9687 33.7992 34.6719 34.5352 34.6461 35.7258C34.6461 35.7258 33.5305 37.4086 30.7437 37.4297L29.9211 35.9531Z" fill="white"/>
<path d="M25.393 52.6148C25.7463 52.6148 26.0328 52.3284 26.0328 51.975C26.0328 51.6216 25.7463 51.3352 25.393 51.3352C25.0396 51.3352 24.7531 51.6216 24.7531 51.975C24.7531 52.3284 25.0396 52.6148 25.393 52.6148Z" fill="#233862"/>
<path d="M23.5484 57.7383C23.5484 57.3844 23.8343 57.0984 24.1882 57.0984C24.5421 57.0984 24.8281 57.3844 24.8281 57.7383C24.8281 58.0922 24.5421 58.3781 24.1882 58.3781C23.8343 58.3781 23.5484 58.0922 23.5484 57.7383Z" fill="#233862"/>
<path d="M23.5742 25.5797L23.7875 25.3781C21.643 23.1164 22.6414 20.1094 22.9062 19.4297C22.9414 19.343 22.9203 19.2445 22.8523 19.1766C22.7867 19.1109 22.6719 19.1344 22.6391 19.2234C22.3414 20.0203 21.3383 23.2219 23.5742 25.5797Z" fill="#EFCBAB"/>
<path d="M23.7875 25.3781L24.132 25.5773L23.757 25.9195L23.5742 25.5797L23.7875 25.3781Z" fill="#D8A987"/>
<path d="M24.1321 25.5773C24.1321 25.5773 24.5305 25.9851 24.7086 25.9101C24.7086 25.9101 24.4883 26.318 24.2563 26.325C24.2563 26.325 23.8672 26.1164 23.7594 25.9172L24.1321 25.5773Z" fill="#EFCBAB"/>
<path d="M27.9758 23.2312C27.9758 23.2312 29.4758 23.332 29.9211 22.5726C29.9211 22.5726 31.1398 22.8773 31.6766 22.4203C31.6766 22.4203 33.5562 22.8 33.6078 22.0406C33.6078 22.0406 35.0445 24.9164 36.6195 24.3141C38.1945 23.7117 34.1 20.7984 34.1 20.7984L28.7422 21.5133L27.9758 23.2312Z" fill="#C94C43"/>
<path d="M28.0883 21.0773L27.7812 22.4133C27.7812 22.4133 31.9672 20.9273 37.0742 23.8852L37.0156 21.7336C37.0039 21.3141 36.8117 20.918 36.4883 20.6508C35.5648 19.8891 33.3547 18.3937 29.2625 19.5844C28.6883 19.7508 28.2219 20.4938 28.0883 21.0773Z" fill="#172856"/>
<path d="M9.79764 4.60078C9.78358 4.51875 9.50701 3.94219 9.88436 3.40781C10.2617 2.87344 12.7414 2.05547 12.9734 2.48672C13.2055 2.91797 13.0578 4.42031 12.2609 4.75078C11.464 5.08359 9.85858 4.93359 9.79764 4.60078Z" fill="#FFB27D"/>
<path d="M16.857 42.1664C16.0343 40.3078 10.1937 34.9758 9.21635 29.7375C8.76401 27.307 10.1843 25.5867 11.9093 24.4242C11.9093 24.4242 11.1007 28.1016 13.3953 31.4203C15.6898 34.7391 16.857 42.1664 16.857 42.1664Z" fill="#0D1531"/>
<path d="M45.7695 72.1641C43.7187 72.893 41.5062 71.9086 40.8359 69.8391C39.9336 67.0477 39.8398 64.0406 39.5047 61.5656C39.3406 60.3492 39.1508 57.8391 38.4125 55.8844C38.4804 55.9922 40.7047 59.5031 42.6992 65.1891C44.7265 70.9641 44.0937 71.8078 45.7695 72.1641Z" fill="#0D1531"/>
</svg>
