<svg width="43" height="120" viewBox="0 0 43 120" fill="none" xmlns="http://www.w3.org/2000/svg">
<path d="M5.71011 117.403C5.71011 117.403 4.90854 118.927 4.23354 119.531C3.5562 120.136 0.968698 121.214 0.954636 123.007C0.93823 124.952 5.3187 124.411 7.03198 124.341C8.74526 124.27 8.87417 123.23 9.59604 122.128C10.3179 121.027 11.0445 121.214 11.1804 120.326C11.3164 119.438 10.6296 117.45 10.6296 117.45L5.71011 117.403Z" fill="#0D1531"/>
<path d="M5.63511 116.841L5.50854 117.762C5.50854 117.762 8.20151 118.526 10.7492 117.841L10.6085 116.58L5.63511 116.841Z" fill="#172856"/>
<path d="M37.2898 117.403C37.2898 117.403 38.0913 118.927 38.7663 119.531C39.4437 120.136 42.0312 121.214 42.0452 123.007C42.0616 124.952 37.6812 124.411 35.9679 124.341C34.2546 124.27 34.1257 123.23 33.4038 122.128C32.682 121.027 31.9554 121.214 31.8194 120.326C31.6835 119.438 32.3702 117.45 32.3702 117.45L37.2898 117.403Z" fill="#0D1531"/>
<path d="M37.3648 116.841L37.4914 117.762C37.4914 117.762 34.7984 118.526 32.2507 117.841L32.3914 116.58L37.3648 116.841Z" fill="#172856"/>
<path d="M35.9468 92.2922C35.9468 94.6898 38.5952 116.58 38.5952 116.58C38.2905 117.38 31.789 117.281 30.7765 116.883C29.7616 116.482 26.8132 94.7883 26.6257 92.3719C26.4382 89.9555 22.2054 68.9273 21.3147 69.007C20.4265 69.0867 16.2124 91.6195 15.5022 93.457C14.7921 95.2945 11.5718 117.089 11.5718 117.089C9.34053 118.127 4.03662 116.827 4.03662 116.827C4.03662 116.827 5.14756 94.4508 5.27646 93.7734C5.46396 92.7727 5.26709 90.0797 5.78506 84.0984C6.24678 78.75 7.91553 67.1016 8.97256 60.7922C9.01006 60.5672 9.04521 60.3516 9.08037 60.1453C9.28662 58.9172 9.44365 58.0148 9.51865 57.5836C9.55146 57.3961 9.56787 57.2977 9.56787 57.2977C9.85146 57.1945 10.1515 57.0984 10.4608 57.0117C17.8882 54.9094 32.028 55.043 32.028 55.043C32.028 55.043 32.2226 57.1898 32.239 57.2953C32.2577 57.4219 32.2882 57.6211 32.3257 57.8789C32.4077 58.4344 32.5319 59.2641 32.6726 60.225C32.6726 60.232 32.6749 60.2391 32.6749 60.2461C32.6796 60.2742 32.6843 60.3047 32.689 60.3328C33.1882 63.7547 33.896 68.7633 33.828 69.2836C33.7272 70.0852 35.9468 89.8945 35.9468 92.2922Z" fill="#0D1531"/>
<path d="M37.0063 21.3773L33.357 32.4422C33.2305 32.8008 33.0828 33.2414 32.9234 33.7547L32.9164 33.7734C32.9141 33.7781 32.9117 33.7828 32.9117 33.7875C32.3023 35.7586 31.55 38.7656 31.325 42.1078C31.1727 44.3859 31.6719 53.5406 31.6719 53.5406C31.6719 53.5406 26.15 55.282 17.8859 54.8414C17.8859 54.8414 8.99844 54.6656 9.72266 50.0602C11.6398 37.8703 9.76484 32.843 9.51406 31.6195C9.51406 31.6195 8.46406 26.0039 7.60156 21.0422C10.1023 20.2547 20.6305 16.9148 20.6305 16.9148L26.1641 17.2641C26.1664 17.2664 34.5758 19.0172 37.0063 21.3773Z" fill="#FFFBF3"/>
<path d="M23.4077 1.27266C23.4077 1.27266 28.8101 2.04375 27.8937 9.18985C26.9773 16.3383 22.2077 15.7078 21.889 15.6984C21.5702 15.6891 17.0937 15.7852 16.857 7.04532C16.857 7.04532 16.7867 0.583597 23.4077 1.27266Z" fill="#EEA987"/>
<path d="M25.7726 13.6266C25.7726 13.6266 25.5875 16.568 25.9156 17.2078C26.2437 17.8477 21.5773 19.875 18.6781 17.5664C18.6781 17.5664 19.264 14.3508 19.0836 13.2164C18.9008 12.082 25.7726 13.6266 25.7726 13.6266Z" fill="#EEA987"/>
<path d="M28.0015 7.17187C28.0015 7.17187 28.6015 6.64218 28.8101 7.18593C29.021 7.72968 27.8538 10.1391 27.9265 10.2469C27.9265 10.2469 27.8163 10.4555 27.6757 10.3383C27.5351 10.2234 28.0015 7.17187 28.0015 7.17187Z" fill="#EEA987"/>
<path d="M16.9179 6.97969C16.9179 6.97969 16.3437 6.42891 16.1093 6.96563C15.8726 7.50235 16.7374 9.90704 16.8453 10.057C16.8453 10.057 17.0304 10.3031 17.1781 10.193C17.321 10.0781 16.9179 6.97969 16.9179 6.97969Z" fill="#EEA987"/>
<path d="M28.3484 6.56485C28.1632 7.54219 27.9874 8.26875 27.9874 8.26875L27.2023 9.13594C27.2023 9.13594 27.2491 7.21641 27.1296 6.91641C27.0827 6.80157 27.0312 6.6 26.9749 6.37969C26.8835 6.01875 26.7921 5.61094 26.7288 5.475C26.6281 5.25703 22.0976 4.13907 18.064 5.70938C18.064 5.70938 18.0992 6.00469 18.0945 6.33516C18.0945 6.71719 18.0429 7.1461 17.8367 7.21172C17.4499 7.33125 17.6117 9.45703 17.6117 9.45703L16.9835 8.84297C16.9835 8.84297 16.8007 7.73203 16.6226 6.45469C16.6226 6.45469 16.6226 6.45235 16.6202 6.44532C16.5804 6.14766 16.5382 5.84063 16.4984 5.53828C16.4093 4.25391 16.5593 1.92188 18.5374 0.553128C19.8734 0.0703158 23.5202 -0.417184 25.557 0.57891C25.557 0.57891 26.6468 1.15078 26.8765 1.33828C29.0867 3.3961 28.3484 6.56485 28.3484 6.56485Z" fill="#0D1531"/>
<path d="M19.4539 14.7445C19.4539 14.7445 20.3164 15.757 22.3203 15.7172C24.3218 15.6797 25.1937 14.7961 25.1937 14.7961C25.1937 14.7961 24.2445 16.4719 22.3109 16.4555C20.3749 16.4367 19.4539 14.7445 19.4539 14.7445Z" fill="#C78D71"/>
<path d="M18.1273 17.6297C18.1273 17.6297 19.5758 19.7602 22.3226 19.9594C24.0664 20.0859 25.5593 18.2156 26.2672 17.2992C26.2672 17.2992 22.3789 15.893 18.1273 17.6297Z" fill="#EEA987"/>
<path d="M25.7797 16.6313C25.7797 16.6313 24.6758 17.8547 22.3226 19.1625L23.7851 21.068L26.2789 17.2898L25.7797 16.6313Z" fill="#DBD2CA"/>
<path d="M18.7883 16.9172C18.7883 16.9172 20.1945 18.4055 22.3227 19.1625L20.7172 21.1242L17.9258 17.7727L18.7883 16.9172Z" fill="#DBD2CA"/>
<path d="M9.42261 55.6711C9.42261 55.6711 16.2007 57.7852 31.5289 55.7953L31.325 53.4492C31.325 53.4492 22.4398 55.6641 9.69214 53.768L9.42261 55.6711Z" fill="black"/>
<path d="M26.2812 17.2898C26.2812 17.2898 24.6968 27.3117 24.9148 35.9414C25.1327 44.5734 28.4491 60.757 28.4491 60.757C28.4491 60.757 34.3601 60.2672 35.8273 58.7062C35.8273 58.7062 32.4359 43.1297 32.5319 40.8187C32.628 38.5102 36.8796 21.1477 36.8796 21.1477C36.8796 21.1477 35.2155 19.2773 26.2812 17.2898Z" fill="#172856"/>
<path d="M17.7991 17.8148C17.7991 17.8148 17.7851 27.3117 17.5671 35.9438C17.3491 44.5758 16.0038 60.6422 16.0038 60.6422C16.0038 60.6422 9.06865 59.8078 7.60146 58.2469C7.60146 58.2469 10.046 43.132 9.9499 40.8234C9.85381 38.5148 6.81396 21.3234 6.81396 21.3234C6.81396 21.3234 7.86631 20.0555 17.7991 17.8148Z" fill="#172856"/>
<path d="M22.8312 54.1711H18.6664V56.7891H22.8312V54.1711Z" fill="#3E5E78"/>
<path d="M22.3226 19.1626L23.5765 20.7751C23.5765 20.7751 22.2593 21.4056 21.0359 20.7353L22.3226 19.1626Z" fill="#5073AB"/>
<path d="M21.7344 20.3672C21.7344 20.3672 19.8735 25.732 19.7118 36.3891C19.5501 47.0461 19.9415 50.1024 19.9415 50.1024L21.3946 52.5305L23.3305 49.9969C23.3305 49.9969 22.7094 25.4742 23.068 20.5547L21.7344 20.3672Z" fill="#5073AB"/>
<path d="M29.4991 35.3649C29.4991 35.3649 32.2531 34.1953 32.6351 33.9891C33.0171 33.7828 37.6156 33.2063 38.1945 33.2227C38.7734 33.2391 38.7991 33.6281 38.6351 33.7664C38.471 33.9047 33.8749 34.5422 33.7952 34.6359C33.7155 34.7297 34.1843 34.6945 34.1843 34.6945C34.1843 34.6945 39.139 34.6313 39.4835 34.9102C39.8304 35.1914 39.432 35.4563 39.2327 35.5266C39.2327 35.5266 39.6827 35.9649 39.1624 36.1453C38.6421 36.3258 37.9366 36.4406 37.9366 36.4406C37.9366 36.4406 38.5906 36.7266 38.1616 36.9797C37.7304 37.2352 32.4827 38.6086 32.4827 38.6086C32.4827 38.6086 30.5281 35.4539 29.4991 35.3649Z" fill="#EEA886"/>
<path d="M38.9586 43.3852C35.3797 44.107 27.1109 42.9352 23.9586 42.3469C23.2906 42.2227 22.5359 42.0914 21.7601 41.9648H21.7578C20.4687 41.7516 19.1234 41.543 18.0312 41.3789C16.6859 41.175 15.725 41.0391 15.725 41.0391C15.725 41.0391 33.0828 37.7438 33.7226 37.7438C34.3625 37.7438 32.1195 29.168 32.1195 29.168C32.1195 29.168 29.8836 21.9867 31.0437 19.1625C31.0437 19.1625 35.4476 20.2922 36.8726 21.1523C37.6672 21.6328 38.2531 24.7477 38.7945 26.8641C39.4812 29.5477 41.0773 35.6625 41.2578 36.9516C41.4289 38.1281 42.5375 42.6633 38.9586 43.3852Z" fill="#172856"/>
<path d="M12.4015 19.1977C12.4015 19.1977 7.06952 20.7375 6.81405 21.3211C5.73592 23.7961 5.23436 26.5031 4.88514 27.5859C4.45858 28.9102 3.4953 32.8734 3.24686 34.1649C2.93045 35.8125 2.32342 41.6508 2.58827 42.5508C2.92108 43.6875 6.09217 43.6055 7.80077 43.3805C9.50936 43.1531 33.2562 38.2711 33.2562 38.2711C33.2562 38.2711 31.9015 34.5375 31.8336 34.207C31.8336 34.207 13.5289 35.9766 11.1969 36.3961C9.86561 36.6352 9.57733 36.7289 9.57733 36.7289C9.57733 36.7289 13.6156 22.725 12.4015 19.1977Z" fill="#172856"/>
<path d="M15.5538 35.9109C15.5538 35.9109 13.1632 34.2656 12.8445 33.9961C12.5234 33.7242 8.1804 32.3273 7.61087 32.2359C7.04133 32.1445 6.9429 32.5312 6.98743 32.7211C7.06243 33.0562 11.4921 34.3102 11.546 34.4156C11.5999 34.5211 11.1523 34.4016 11.1523 34.4016C11.1523 34.4016 6.33118 33.4383 5.92102 33.6492C5.51086 33.8602 5.83196 34.1906 6.01008 34.2961C6.01008 34.2961 5.4593 34.643 5.92102 34.9125C6.38274 35.1844 7.04133 35.4234 7.04133 35.4234C7.04133 35.4234 6.32883 35.5828 6.68508 35.9086C7.04133 36.2367 9.57727 36.7266 9.57727 36.7266C9.57727 36.7266 14.5273 35.8102 15.5538 35.9109Z" fill="#EEA886"/>
<path d="M29.8133 38.9789L21.7625 41.9649H21.7601C20.4711 41.7516 19.1258 41.543 18.0336 41.3789L29.8133 38.9789Z" fill="#263947"/>
<path d="M25.932 1.2211C25.932 1.2211 27.2726 0.649222 27.9969 1.39688C28.7211 2.14453 28.8008 6.21328 27.9148 7.77422C27.0312 9.3375 28.0554 2.2336 25.932 1.2211Z" fill="#0D1531"/>
</svg>
