<svg width="16" height="16" viewBox="0 0 16 16" fill="none" xmlns="http://www.w3.org/2000/svg">
<path d="M10.4 15.8672V11.8672C10.4 11.2307 10.1471 10.6203 9.69706 10.1702C9.24697 9.72008 8.63652 9.46723 8 9.46723C7.36348 9.46723 6.75303 9.72008 6.30294 10.1702C5.85286 10.6203 5.6 11.2307 5.6 11.8672V15.8672H1.6C1.17565 15.8672 0.768687 15.6987 0.468629 15.3986C0.168571 15.0985 0 14.6916 0 14.2672V5.57283C-2.65819e-06 5.29653 0.0715445 5.02494 0.207674 4.7845C0.343804 4.54407 0.539877 4.34298 0.7768 4.20083L7.1768 0.360828C7.42547 0.211627 7.71001 0.132812 8 0.132812C8.28999 0.132812 8.57453 0.211627 8.8232 0.360828L15.2232 4.20083C15.4601 4.34298 15.6562 4.54407 15.7923 4.7845C15.9285 5.02494 16 5.29653 16 5.57283V14.2672C16 14.6916 15.8314 15.0985 15.5314 15.3986C15.2313 15.6987 14.8243 15.8672 14.4 15.8672H10.4Z" fill="#97A1B2"/>
</svg>
