<svg
        width="12"
        height="12"
        viewBox="0 0 12 12"
        fill="none"
        xmlns="http://www.w3.org/2000/svg"
      >
        <path
          d="M6.80002 5.2V1.2C6.80002 0.987826 6.71574 0.784343 6.56571 0.634314C6.41568 0.484285 6.2122 0.4 6.00002 0.4C5.78785 0.4 5.58437 0.484285 5.43434 0.634314C5.28431 0.784343 5.20002 0.987826 5.20002 1.2V5.2H1.20002C0.987851 5.2 0.784368 5.28429 0.634339 5.43431C0.48431 5.58434 0.400024 5.78783 0.400024 6C0.400024 6.21217 0.48431 6.41566 0.634339 6.56569C0.784368 6.71571 0.987851 6.8 1.20002 6.8H5.20002V10.8C5.20002 11.0122 5.28431 11.2157 5.43434 11.3657C5.58437 11.5157 5.78785 11.6 6.00002 11.6C6.2122 11.6 6.41568 11.5157 6.56571 11.3657C6.71574 11.2157 6.80002 11.0122 6.80002 10.8V6.8H10.8C11.0122 6.8 11.2157 6.71571 11.3657 6.56569C11.5157 6.41566 11.6 6.21217 11.6 6C11.6 5.78783 11.5157 5.58434 11.3657 5.43431C11.2157 5.28429 11.0122 5.2 10.8 5.2H6.80002Z"
          fill="#6834FF"
        />
      </svg>