<svg width="8" height="14" viewBox="0 0 8 14" fill="none" xmlns="http://www.w3.org/2000/svg">
<path d="M5.35668 6.99961L0.588977 2.23191C0.413528 2.05025 0.316445 1.80695 0.31864 1.55441C0.320834 1.30187 0.42213 1.0603 0.60071 0.881716C0.77929 0.703136 1.02087 0.60184 1.27341 0.599646C1.52595 0.597451 1.76925 0.694534 1.9509 0.869983L7.39957 6.31865C7.58013 6.49927 7.68157 6.74421 7.68157 6.99961C7.68157 7.25501 7.58013 7.49995 7.39957 7.68057L1.9509 13.1292C1.76925 13.3047 1.52595 13.4018 1.27341 13.3996C1.02087 13.3974 0.77929 13.2961 0.60071 13.1175C0.42213 12.9389 0.320834 12.6973 0.31864 12.4448C0.316445 12.1923 0.413528 11.949 0.588977 11.7673L5.35668 6.99961Z" fill="#97A1B2"/>
</svg>
