<svg width="129" height="40" viewBox="0 0 129 40" fill="none" xmlns="http://www.w3.org/2000/svg">
<g clip-path="url(#clip0_216_1791)">
<mask id="mask0_216_1791" style="mask-type:luminance" maskUnits="userSpaceOnUse" x="0" y="0" width="9" height="9">
<path d="M0.17749 4.38975C0.17749 6.6696 2.01832 8.54024 4.32667 8.54024C6.6058 8.54024 8.47586 6.69883 8.47586 4.38975C8.47586 2.10991 6.63502 0.239258 4.32667 0.239258C2.01832 0.239258 0.17749 2.10991 0.17749 4.38975Z" fill="white"/>
</mask>
<g mask="url(#mask0_216_1791)">
<path d="M8.38822 -0.491211L9.17716 8.45281L0.235946 9.24198L-0.552979 0.297971L8.38822 -0.491211Z" fill="url(#paint0_linear_216_1791)"/>
</g>
<mask id="mask1_216_1791" style="mask-type:luminance" maskUnits="userSpaceOnUse" x="0" y="10" width="11" height="26">
<path d="M0.995605 10.1777V23.3599C0.995605 24.3245 1.08326 25.2598 1.2878 26.1951C1.34624 26.5166 1.4339 26.8089 1.52156 27.1012C1.78453 27.9781 2.13517 28.855 2.57346 29.6441C2.71956 29.9072 2.86566 30.1702 3.01176 30.4333C3.09942 30.5795 3.2163 30.7256 3.30395 30.8717C3.39161 31.0179 3.50849 31.1933 3.62537 31.3102C4.2682 32.1578 4.9987 32.947 5.84607 33.6193C5.99217 33.7654 6.13827 33.8823 6.31358 33.9992C6.83954 34.4084 7.3947 34.7592 7.9791 35.0807C8.06676 35.1392 8.18363 35.1684 8.27129 35.2268C8.24207 35.0515 8.24207 34.9053 8.24207 34.7299C8.24207 32.947 9.03101 31.3394 10.2582 30.1995C10.7257 29.761 10.7257 29.0596 10.1998 28.6504C8.59271 27.4227 7.5408 25.4936 7.5408 23.3015V11.7853V10.1777H0.995605Z" fill="white"/>
</mask>
<g mask="url(#mask1_216_1791)">
<path d="M10.7256 9.33008L12.9756 35.0514L1.08316 36.1037L-1.16675 10.3531L10.7256 9.33008Z" fill="url(#paint1_linear_216_1791)"/>
</g>
<path d="M27.7023 23.3601C27.7023 24.3246 27.6146 25.26 27.4101 26.1953C27.3517 26.5168 27.264 26.8091 27.1763 27.1014C27.001 27.7152 26.7965 28.2705 26.5335 28.8259C26.4166 29.1182 26.2705 29.3812 26.1244 29.6443C25.9783 29.9073 25.8322 30.1704 25.6861 30.4335C24.9264 31.6611 23.9622 32.7425 22.8518 33.6486C22.735 33.7655 22.5889 33.8532 22.4428 33.9701C21.7999 34.467 21.1279 34.9055 20.3682 35.2854C20.3974 35.1101 20.3974 34.9639 20.3974 34.7886C20.3974 32.9764 19.6377 31.3688 18.3812 30.2581C17.9137 29.8197 17.9137 29.1182 18.4397 28.709C20.3974 27.2183 21.537 24.6462 20.9233 21.8402C20.3974 19.385 18.4397 17.3682 15.9852 16.8128C11.5731 15.7606 7.62842 19.1219 7.62842 23.3601V11.8439C8.12515 11.5516 8.62188 11.2886 9.17705 11.084C9.44003 10.9671 9.70301 10.8794 9.93677 10.7917C10.229 10.704 10.5212 10.5871 10.8134 10.5286C11.1056 10.4409 11.3977 10.3825 11.6607 10.324C12.5373 10.1487 13.4431 10.061 14.3489 10.061C21.7123 10.0025 27.7023 15.9652 27.7023 23.3601Z" fill="#6834FF"/>
<path d="M32.7866 2.6661C32.7866 1.73078 33.4879 1.0293 34.4229 1.0293C35.358 1.0293 36.0884 1.73078 36.0884 2.6661C36.0884 3.60143 35.3872 4.30292 34.4229 4.30292C33.5171 4.30292 32.7866 3.5722 32.7866 2.6661Z" fill="#AB8FFF"/>
<path d="M35.7085 6.17285H33.1372V17.9228H35.7085V6.17285Z" fill="#0B1331"/>
<path d="M37.9001 6.17315H40.4715V7.66382C41.4065 6.5239 42.7798 5.88086 44.4454 5.88086C47.2212 5.88086 49.0913 7.72228 49.0913 10.499V14.328C49.0913 15.0003 49.4711 15.4095 50.1432 15.4095H50.3769V17.8939H49.6464C47.6011 17.8939 46.5199 16.8709 46.5199 14.9126V11.3759C46.5199 9.59293 45.3804 8.39454 43.598 8.39454C41.7279 8.39454 40.5007 9.62215 40.5007 11.4343V17.9231H37.9294V6.17315H37.9001Z" fill="#0B1331"/>
<path d="M52.1007 14.2989V8.51155H50.1138V6.17324H51.3118C51.8962 6.17324 52.2468 5.85173 52.2468 5.23793V2.9873H54.672V6.17324H57.5648V8.51155H54.672V13.8897C54.672 14.9127 55.3149 15.5557 56.396 15.5557H57.5648V17.9232H56.0161C53.474 17.9232 52.1007 16.6372 52.1007 14.2989Z" fill="#0B1331"/>
<path d="M58.5876 12.0482C58.5876 8.54075 61.2759 5.91016 64.8407 5.91016C68.4347 5.91016 71.1229 8.56998 71.1229 12.0774C71.1229 12.3405 71.0937 12.7789 71.0644 13.042H61.3343C61.7142 14.7373 63.1167 15.8772 64.9575 15.8772C66.3016 15.8772 67.4996 15.2926 68.084 14.3865H70.9476C70.0125 16.6664 67.7042 18.2155 64.9283 18.2155C61.2759 18.1863 58.5876 15.5557 58.5876 12.0482ZM61.3635 10.9375H68.347C67.9672 9.32993 66.5646 8.24846 64.8407 8.24846C63.1459 8.21923 61.7726 9.3007 61.3635 10.9375Z" fill="#0B1331"/>
<path d="M80.0347 6.17285H82.9858L86.4045 14.7661L88.1577 10.528C88.8298 8.80345 89.0927 7.40046 88.8298 6.17285H91.4888C91.7517 7.51738 91.4888 9.12497 90.6706 11.0833L87.7487 17.9228H85.0604L80.0347 6.17285Z" fill="#0B1331"/>
<path d="M92.9207 2.6661C92.9207 1.73078 93.6219 1.0293 94.557 1.0293C95.492 1.0293 96.2225 1.73078 96.2225 2.6661C96.2225 3.60143 95.5212 4.30292 94.557 4.30292C93.6219 4.30292 92.9207 3.5722 92.9207 2.6661Z" fill="#AB8FFF"/>
<path d="M95.8133 6.17285H93.2419V17.9228H95.8133V6.17285Z" fill="#0B1331"/>
<path d="M78.6614 6.17285V8.74499H75.2427C75.2427 7.31278 76.3823 6.17285 77.814 6.17285H78.6614Z" fill="#0B1331"/>
<path d="M75.2427 6.17285H72.6714V17.9228H75.2427V6.17285Z" fill="#0B1331"/>
<path d="M97.3035 12.0482C97.3035 8.54075 99.9917 5.91016 103.556 5.91016C107.15 5.91016 109.839 8.56998 109.839 12.0774C109.839 12.3405 109.809 12.7789 109.78 13.042H100.079C100.459 14.7373 101.862 15.8772 103.703 15.8772C105.047 15.8772 106.245 15.2926 106.829 14.3865H109.693C108.758 16.6664 106.449 18.2155 103.673 18.2155C99.9917 18.1863 97.3035 15.5557 97.3035 12.0482ZM100.079 10.9375H107.063C106.683 9.32993 105.28 8.24846 103.556 8.24846C101.862 8.21923 100.488 9.3007 100.079 10.9375Z" fill="#0B1331"/>
<path d="M109.751 6.17285H112.673L115.449 14.7077L118.313 6.17285H120.972L123.835 14.7077L125.267 10.528C125.793 8.77422 126.114 7.42969 125.851 6.17285H128.51C128.773 7.54661 128.393 9.09574 127.692 11.1125L125.179 17.8936H122.52L119.627 9.18343L116.735 17.8936H114.076L109.751 6.17285Z" fill="#0B1331"/>
<path d="M33.0496 19.4727H35.0365V25.3769C36.03 23.9154 37.637 22.9801 39.5948 22.9801C42.955 22.9801 45.4679 25.6107 45.4679 29.1182C45.4679 32.6256 42.955 35.2562 39.5948 35.2562C37.637 35.2562 36.03 34.3501 35.0365 32.8595V34.9639H33.0496V19.4727ZM43.3933 29.1182C43.3933 26.6922 41.6109 24.88 39.1857 24.88C36.7897 24.88 35.0073 26.6922 35.0073 29.1182C35.0073 31.5442 36.7897 33.3563 39.1857 33.3563C41.6109 33.3563 43.3933 31.5442 43.3933 29.1182Z" fill="#0B1331"/>
<path d="M46.4907 30.6381V23.2724H48.4777V30.0535C48.4777 32.041 49.7341 33.3271 51.6918 33.3271C53.7372 33.3271 55.1105 31.9826 55.1105 29.995V23.2432H57.0974V31.8949C57.0974 32.5964 57.5357 33.064 58.2662 33.064H58.4708V34.9639H57.8864C56.4254 34.9639 55.4904 34.3209 55.2274 33.1225C54.3216 34.467 52.919 35.227 51.0782 35.227C48.3316 35.2562 46.4907 33.4148 46.4907 30.6381Z" fill="#0B1331"/>
<path d="M58.5 29.1182C58.5 25.6399 61.0129 22.9801 64.3439 22.9801C66.3016 22.9801 67.9087 23.8862 68.9022 25.3769V19.4727H70.8891V31.8949C70.8891 32.5964 71.3566 33.0641 72.0579 33.0641H72.2917V34.9639H71.6781C70.1002 34.9639 69.1652 34.204 68.9606 32.801C67.9672 34.2917 66.3309 35.227 64.3732 35.227C61.0129 35.2562 58.5 32.6256 58.5 29.1182ZM68.9314 29.1182C68.9314 26.6922 67.149 24.88 64.753 24.88C62.3278 24.88 60.5454 26.6922 60.5454 29.1182C60.5454 31.5442 62.3278 33.3563 64.753 33.3563C67.1198 33.3563 68.9314 31.5442 68.9314 29.1182Z" fill="#0B1331"/>
<path d="M72.3792 29.1182C72.3792 25.6399 74.892 22.9801 78.2231 22.9801C80.1808 22.9801 81.7879 23.8862 82.7814 25.3769V19.4727H84.7683V31.8949C84.7683 32.5964 85.2358 33.0641 85.9371 33.0641H86.1708V34.9639H85.5572C83.9794 34.9639 83.0443 34.204 82.8398 32.801C81.8463 34.2917 80.21 35.227 78.2523 35.227C74.892 35.2562 72.3792 32.6256 72.3792 29.1182ZM82.7814 29.1182C82.7814 26.6922 80.9989 24.88 78.6029 24.88C76.1777 24.88 74.3953 26.6922 74.3953 29.1182C74.3953 31.5442 76.1777 33.3563 78.6029 33.3563C80.9989 33.3563 82.7814 31.5442 82.7814 29.1182Z" fill="#0B1331"/>
<path d="M86.9014 30.112V23.2725H88.8883V29.5567C88.8883 31.5442 90.1447 32.8303 92.1025 32.8303C94.1478 32.8303 95.5212 31.515 95.5212 29.5274V23.3017H97.5081V34.4379C97.5081 37.5654 95.229 39.6114 92.1609 39.6114C89.648 39.6114 87.6319 38.1792 87.0475 35.8701H89.0928C89.5019 37.0392 90.7876 37.7992 92.1901 37.7992C94.0602 37.7992 95.5504 36.4839 95.5504 34.5256V32.7426C94.6446 34.0287 93.242 34.7302 91.5181 34.7302C88.7422 34.7302 86.9014 32.8888 86.9014 30.112Z" fill="#0B1331"/>
</g>
<defs>
<linearGradient id="paint0_linear_216_1791" x1="4.03716" y1="1.35123" x2="6.8628" y2="33.634" gradientUnits="userSpaceOnUse">
<stop stop-color="#AB8FFF"/>
<stop offset="0.9897" stop-color="#693AF4"/>
<stop offset="1" stop-color="#693AF4"/>
</linearGradient>
<linearGradient id="paint1_linear_216_1791" x1="3.74805" y1="-1.88267" x2="6.84311" y2="33.4785" gradientUnits="userSpaceOnUse">
<stop stop-color="#AB8FFF"/>
<stop offset="0.9897" stop-color="#693AF4"/>
<stop offset="1" stop-color="#693AF4"/>
</linearGradient>
<clipPath id="clip0_216_1791">
<rect width="128.85" height="40" fill="white"/>
</clipPath>
</defs>
</svg>
